# xmcd CD database file
#
# Track frame offsets:
#	150
#	25226
#	42053
#	69712
#	89038
#	114196
#	135866
#	172228
#	199743
#
# Disc length: 3034 seconds
#
# Revision: 0
# Processed by: cddbd v1.5.2PL0 Copyright (c) Steve Scherf et al.
# Submitted via: CDex 1.51
#
DISCID=770bd809
DTITLE=Next Jazz - Next Generation North Sea Jazz Festival Cd2/5
DYEAR=2011
DGENRE=Jazz
TTITLE0=Roy Hardgrove - Ms. Gravey, Ms. Gravey
TTITLE1=Madeleine Peyroux - The things I've seen today
TTITLE2=Jazzanove - Little Bird
TTITLE3=Kristin Asbornson - Moment
TTITLE4=Roberta Gambarini - You ain't nothing but a
TTITLE5=Kurt Elling - Steppin' out
TTITLE6=David Sanborn - Baby won't you please come home
TTITLE7=Nailah Porter - Sacred
TTITLE8=Brian Blade - Omni
EXTD=YEAR: 2011
EXTT0=
EXTT1=
EXTT2=
EXTT3=
EXTT4=
EXTT5=
EXTT6=
EXTT7=
EXTT8=
PLAYORDER=
